<svg width="192" height="61" viewBox="0 0 192 61" fill="none" xmlns="http://www.w3.org/2000/svg">
<g clip-path="url(#clip0_4117_197)">
<path d="M70.5024 34.8461C70.5024 39.1729 72.6912 40.3319 75.7632 40.3319C77.376 40.3319 79.9488 40.1001 82.0992 39.2502L82.6752 44.4655C79.8336 45.3154 77.0688 45.8176 74.688 45.8176C68.1216 45.8176 63.2448 42.8043 63.2448 33.5326C63.2448 27.7764 66.3168 22.5225 73.8816 22.5225C80.7552 22.5225 83.2896 26.5402 83.2896 31.3692C83.2896 32.5668 83.136 33.6099 82.8288 34.8461H70.5024ZM70.7328 31.1761H77.0688C77.0688 29.2445 76.3392 27.4288 74.0352 27.4288C71.2704 27.4288 70.7328 29.8626 70.7328 31.1761Z" fill="white"/>
<path d="M99.0336 44.4269C96.8064 45.7017 94.2336 45.779 93.2736 45.779C88.1664 45.779 86.6304 42.8043 86.6304 38.2844V15.1051H94.1952V37.898C94.1952 39.6751 95.1552 40.216 96.4224 40.216C97.0752 40.216 97.7664 40.0614 98.496 39.791L99.0336 44.4269Z" fill="white"/>
<path d="M102.106 37.898C102.106 41.684 102.106 45.779 109.363 45.779C110.093 45.779 112.435 45.7017 114.816 44.62L114.086 39.8683C113.28 40.1773 112.474 40.2932 111.782 40.2932C110.554 40.2932 109.632 39.6751 109.632 37.7821V27.931H127.68L121.037 24.145H109.709V17.4617L102.298 18.1184V24.1837H98.5728V29.2058H102.182V37.898H102.106Z" fill="white"/>
<path d="M120.154 37.898C120.154 41.684 120.154 45.779 127.411 45.779C128.141 45.779 130.483 45.7017 132.864 44.62L132.134 39.8683C131.328 40.1773 130.522 40.2932 129.83 40.2932C128.602 40.2932 127.68 39.6751 127.68 37.7821V29.1672H132.288L133.632 24.1064H127.718V17.4617L120.307 18.1184V24.1837H104.102V29.2058H120.154V37.898Z" fill="white"/>
<path d="M135.782 29.1672L137.51 24.2609C140.39 23.102 142.656 22.4839 145.498 22.4839C150.259 22.4839 154.214 24.4155 154.214 31.0215V44.1564C152.026 45.1222 148.224 45.9335 144.538 45.9335C139.469 45.9335 134.63 44.5814 134.63 39.057C134.63 33.803 138.547 32.026 142.694 32.026C144.115 32.026 145.536 32.1419 146.842 32.5282V31.0988C146.842 31.0988 146.65 25.7289 135.782 29.1672ZM144.73 41.3363C145.421 41.3363 146.189 41.259 146.842 41.0272V36.3914C146.189 36.121 145.459 36.0051 144.768 36.0051C143.155 36.0051 141.734 36.7777 141.696 38.8638C141.696 40.8341 143.194 41.3363 144.73 41.3363Z" fill="white"/>
<path d="M158.208 25.1495C160.205 24.1837 164.851 22.4452 169.459 22.4452C171.802 22.4452 173.952 22.7156 175.565 24.4155C177.523 23.0633 179.981 22.4452 182.938 22.4452C187.469 22.4452 191.155 24.2996 191.155 30.3648V45.2381H183.821V30.9443C183.821 28.6263 182.784 27.8537 181.363 27.8537C180.403 27.8537 179.366 28.0855 178.176 28.5877C178.253 29.1286 178.291 29.7467 178.291 30.3648V45.2381H171.034V30.9443C171.034 28.4332 169.882 27.8537 168.461 27.8537C167.424 27.8537 166.502 28.0855 165.542 28.5104V45.2381H158.208V25.1495Z" fill="white"/>
<path d="M25.728 0C13.3248 11.4351 0.4608 9.61938 0.4608 9.61938L0.6528 27.8151C0.8064 42.418 9.9072 55.3984 23.5776 60.3433C24.9216 60.8068 25.728 61.0386 25.728 61.0386C25.728 61.0386 26.5344 60.8455 27.8784 60.3433C37.0944 57.0209 44.1984 50.0285 47.9616 41.3749C45.312 42.8816 40.8192 44.8132 34.5216 45.6245C32.2944 47.7106 29.4144 49.7581 25.7664 51.3034C13.8624 46.2812 10.2528 36.0051 10.2528 36.0051C16.0512 38.6707 25.7664 39.0184 25.7664 39.0184C25.7664 39.0184 31.1424 38.8252 36.288 37.6276C37.5936 37.3186 38.976 36.8936 40.3584 36.3914C40.6656 36.2755 40.9728 36.121 41.28 36.0051C41.28 36.0051 41.28 36.0051 41.28 36.0437C44.544 34.7302 47.9232 32.8372 50.688 30.133C50.7648 29.3604 50.8032 28.5877 50.8032 27.8151L50.9952 9.61938C50.9952 9.61938 38.1312 11.4351 25.728 0ZM42.1632 25.0722C42.1632 25.0722 35.7504 29.4763 26.3424 29.4763C16.9344 29.4763 10.4832 25.0722 10.4832 25.0722V18.3502C19.5456 16.6118 26.304 11.3192 26.304 11.3192C26.304 11.3192 32.5248 16.6504 42.1248 18.3502V25.0722H42.1632Z" fill="#F08021"/>
</g>
<defs>
<clipPath id="clip0_4117_197">
<rect width="192" height="61" fill="white"/>
</clipPath>
</defs>
</svg>